<?xml version="1.0" encoding="utf-8"?>
<svg version="1.1" id="Layer_1" xmlns="http://www.w3.org/2000/svg" xmlns:xlink="http://www.w3.org/1999/xlink" x="0px" y="0px"
	 viewBox="0 0 60 60"  xml:space="preserve">
<style type="text/css">
	.st0{opacity:0.5;}
	.st1{fill:#FFFFFF;}
</style>
	<g>
		<g class="st0">
			<path class="st1" d="M14.1,18.2c0.2,0.1,0,0.1-0.1,0.1c4.5,1.2,11.1,2.1,17.9,1.6c0.1,0.7,1,1,1.6,0.7c0.7,0.6,1.6,0.5,2.8,0.7
				c-0.6,0.5-1.4,0.7-1.6,1.5c0.4,0.5,0.5-0.4,0.9-0.3c0.5,0,0,0.2,0.1,0.5c0.8,0,1.4-0.8,2.1-1.2c-0.3,0.6,0.4,0.8,0.7,1.2
				c1.3-0.4,1.9-0.6,2.8-0.1c-0.1,1.4,1.7,1.2,0.9,2.8c0.1,0.4,0.3-0.2,0.7,0c0.8,1,0.1,1.7-0.3,2.8c1.6,0.6,3.9-0.8,4.2-2.7
				c1,0,1.5,0,2.1-0.5c-0.2-2.6,2-2.2,3.8-3c1-0.9,0.3-4.1,2.4-3.4c0.1,1.1,0.5,1.9,1.3,2.3c-0.1,0.8-1,0.9-1.1,1.7
				c-1.2,0-1.2,1.2-1.3,2.6c0.1,0.1,0.8,0.4,0.8,0.1c0.2,0.5-0.4,1.3-1.2,1.3c-0.5,0.6-0.9,1.1-1.9,1.2c0.4,1.6-0.7,2-0.3,3.6
				c-1.5,0.6-0.1,2.3,0.3,3.1c-0.4,1.2-2,1.1-2,2.6c-0.4,0-0.7,0.1-1.1,0.4c-0.2,1-0.8,1.7-1.6,2c-0.1,0.8-0.5,1.5-0.4,2.4
				c0.2,1.2,1.3,1.8,1.5,3.1c0.7,0.8,1.2,1.8,0.9,3.2c-0.2,0-0.3,0.2-0.5,0.1c-1.4-1.1-2.9-2.1-2.8-4.3c-0.7-0.3-0.8-1.1-1.7-1.2
				C43.6,43.4,43.5,44,43,44c-1-1.7-2.9-0.1-4.4-0.4c-0.2,0.4-0.3,1-0.1,1.3c-1.7,0.7-1.7-0.2-3.4-0.1c-2.1-1.2-3.5,1.3-5.2,1.7
				c-0.6,0.9-0.6,1.8-0.1,2.8c-1.1-0.1-1.2-0.5-2.3-0.7c-0.2-0.8-0.3-1.8-1.1-2c-0.2-1.4-0.8-2.4-2.3-2.6c-0.5,0.2-0.7,0.7-0.9,1.1
				c-1.4-0.2-1.4-1.3-1.6-1.9c-0.2-0.8-1.2-1-1.6-2c-0.5,0.2-1.1,0-1.6-0.1c-0.4-0.1-0.3,0.3-0.5,0.4c-3.3,0.3-4.4-1.6-6.6-2.3
				c0.1-0.3-0.1-0.4-0.1-0.5c-1.1-0.1-1.6,0.1-2.4-0.3c0-1.9-1.4-2.4-2.8-3.2c0-2.6-1.6-4.6-1.2-7.3c-1.1-1,1.1-2,0.1-3.1
				c1-2.4,2.3-3.7,2.1-7.4c0.6,0,0.8,0.6,1.6,0.4c0.2-0.4-0.4-0.1-0.3-0.5c0.3,0.1,0.3-0.2,0.3-0.4C10.3,17.3,12.4,18.5,14.1,18.2z"
				/>
		</g>
		<circle class="st1" cx="13.9" cy="26.6" r="5.9"/>
		<path class="st1" d="M33.8,26.6c0,1.7-1.3,3-3,3c-1.7,0-3-1.4-3-3c0-1.7,1.4-3,3-3C32.4,23.5,33.8,24.9,33.8,26.6z"/>
		<circle class="st1" cx="35.6" cy="35" r="1.5"/>
		<path class="st1" d="M30.5,36.6c0,2.7-2.2,4.9-4.9,4.9c-2.7,0-4.9-2.2-4.9-4.9c0-2.7,2.2-4.9,4.9-4.9
			C28.3,31.7,30.5,33.9,30.5,36.6z"/>
		<path class="st1" d="M48.5,34.4c0,2.1-1.7,3.8-3.8,3.8c-2.1,0-3.8-1.7-3.8-3.8c0-2.1,1.7-3.8,3.8-3.8
			C46.8,30.5,48.5,32.2,48.5,34.4z"/>
	</g>
</svg>
