<?xml version="1.0" encoding="utf-8"?>
<svg version="1.1" id="Layer_1" xmlns="http://www.w3.org/2000/svg" xmlns:xlink="http://www.w3.org/1999/xlink" x="0px" y="0px"
	 viewBox="0 0 60 60"  xml:space="preserve">
<style type="text/css">
	.st0{fill:#FFFFFF;}
</style>
<g>
	<rect x="7.6" y="10" class="st0" width="44.8" height="3.1"/>
	<path class="st0" d="M7.6,14.3v7.9h7.9v-7.9H7.6z M12.7,20.1h-1.9V20h0.1c0.2,0,0.3,0,0.3-0.1c0.1,0,0.1-0.1,0.1-0.1
		c0-0.1,0-0.2,0-0.4v-1.9c0-0.2,0-0.3,0-0.3c0,0,0-0.1-0.1-0.1c0,0-0.1,0-0.1,0c-0.1,0-0.2,0-0.3,0.1l0-0.1l1.3-0.6h0.1v2.9
		c0,0.2,0,0.4,0,0.4c0,0.1,0.1,0.1,0.1,0.1C12.3,20,12.4,20,12.7,20.1L12.7,20.1L12.7,20.1z"/>
	<path class="st0" d="M16.9,14.3v7.9h7.9v-7.9H16.9z M21.6,20.1h-2.1v-0.1c0.6-0.8,1-1.3,1.2-1.6c0.1-0.3,0.2-0.5,0.2-0.8
		c0-0.2-0.1-0.3-0.2-0.5c-0.1-0.1-0.3-0.2-0.4-0.2c-0.3,0-0.5,0.1-0.6,0.4l-0.1,0c0.1-0.3,0.2-0.6,0.4-0.7c0.2-0.2,0.4-0.2,0.7-0.2
		c0.2,0,0.3,0,0.5,0.1c0.1,0.1,0.3,0.2,0.4,0.3c0.1,0.1,0.1,0.3,0.1,0.4c0,0.2-0.1,0.5-0.2,0.7c-0.2,0.3-0.6,0.8-1.2,1.4H21
		c0.2,0,0.3,0,0.4,0c0.1,0,0.1,0,0.1-0.1c0,0,0.1-0.1,0.1-0.2h0.1L21.6,20.1z"/>
	<path class="st0" d="M26.1,14.3v7.9H34v-7.9H26.1z M30.6,19.7c-0.3,0.3-0.6,0.4-1.1,0.4c-0.3,0-0.5,0-0.7-0.1
		c-0.1-0.1-0.1-0.2-0.1-0.3c0-0.1,0-0.1,0.1-0.2c0.1-0.1,0.1-0.1,0.2-0.1c0.1,0,0.1,0,0.2,0c0,0,0.1,0.1,0.3,0.2
		c0.2,0.1,0.3,0.2,0.5,0.2c0.1,0,0.2-0.1,0.3-0.2c0.1-0.1,0.1-0.2,0.1-0.4c0-0.2-0.1-0.5-0.3-0.7c-0.2-0.2-0.4-0.3-0.7-0.4v-0.1
		c0.2-0.1,0.3-0.1,0.4-0.2c0.1-0.1,0.1-0.1,0.2-0.2c0.1-0.1,0.1-0.2,0.1-0.3c0-0.1-0.1-0.3-0.2-0.4c-0.1-0.1-0.2-0.2-0.4-0.2
		c-0.2,0-0.5,0.1-0.6,0.4l-0.1,0c0.1-0.3,0.3-0.5,0.5-0.7c0.2-0.1,0.4-0.2,0.7-0.2c0.2,0,0.5,0.1,0.6,0.2c0.2,0.2,0.2,0.3,0.2,0.5
		c0,0.1,0,0.3-0.1,0.4c-0.1,0.1-0.2,0.2-0.4,0.3c0.2,0.1,0.4,0.2,0.5,0.4c0.1,0.1,0.2,0.3,0.2,0.6C31,19.1,30.9,19.5,30.6,19.7z"/>
	<g>
		<polygon class="st0" points="39.1,18.8 39.1,17.4 38.1,18.8 		"/>
		<path class="st0" d="M35.3,14.3v7.9h7.9v-7.9H35.3z M40.1,19.3h-0.3v0.8h-0.7v-0.8h-1.3v-0.5l1.7-2.3h0.3v2.3h0.3V19.3z"/>
	</g>
	<path class="st0" d="M44.5,14.3v7.9h7.9v-7.9H44.5z M49.1,18.1c0.3,0.2,0.4,0.5,0.4,0.9c0,0.2-0.1,0.4-0.2,0.6
		c-0.1,0.2-0.3,0.4-0.5,0.5c-0.2,0.1-0.5,0.2-0.7,0.2c-0.3,0-0.5-0.1-0.7-0.2c-0.1-0.1-0.2-0.2-0.2-0.3c0-0.1,0-0.1,0.1-0.2
		c0.1-0.1,0.1-0.1,0.2-0.1c0.1,0,0.1,0,0.2,0c0.1,0,0.2,0.1,0.4,0.2c0.1,0.1,0.2,0.1,0.3,0.2c0.1,0,0.1,0,0.2,0
		c0.1,0,0.3-0.1,0.4-0.2c0.1-0.1,0.2-0.2,0.2-0.4c0-0.3-0.2-0.6-0.5-0.8c-0.3-0.2-0.7-0.3-1.2-0.3c0,0-0.1,0-0.2,0l0.6-1.8h1.7
		l-0.3,0.7h-1.4l-0.1,0.4C48.3,17.7,48.8,17.8,49.1,18.1z"/>
	<g>
		<path class="st0" d="M11.1,28.1c0,0.2,0,0.5,0.1,0.7c0,0.2,0.1,0.4,0.2,0.5c0.1,0.1,0.1,0.1,0.2,0.1c0.1,0,0.2,0,0.2-0.1
			c0.1-0.1,0.1-0.3,0.1-0.6c0-0.5-0.1-0.8-0.2-1c-0.1-0.1-0.2-0.2-0.3-0.2c-0.1,0-0.2,0-0.3,0.1C11.1,27.8,11.1,28,11.1,28.1z"/>
		<path class="st0" d="M7.6,23.6v7.9h7.9v-7.9H7.6z M12.7,25.9c-0.3,0.1-0.6,0.2-0.8,0.3c-0.2,0.1-0.3,0.3-0.5,0.5
			c-0.1,0.2-0.2,0.4-0.3,0.7c0.1-0.1,0.1-0.1,0.2-0.1c0.1,0,0.2-0.1,0.3-0.1c0.3,0,0.5,0.1,0.7,0.3c0.2,0.2,0.3,0.5,0.3,0.8
			c0,0.2,0,0.5-0.1,0.6c-0.1,0.2-0.2,0.3-0.4,0.5c-0.2,0.1-0.4,0.2-0.6,0.2c-0.2,0-0.4-0.1-0.6-0.2c-0.2-0.1-0.3-0.3-0.4-0.5
			c-0.1-0.2-0.2-0.5-0.2-0.8c0-0.4,0.1-0.8,0.3-1.1c0.2-0.3,0.5-0.6,0.8-0.8C11.8,25.9,12.2,25.8,12.7,25.9L12.7,25.9z"/>
	</g>
	<path class="st0" d="M16.9,23.6v7.9h7.9v-7.9H16.9z M20.6,29.5h-0.4l0,0v0h0l1-3h-0.7c-0.3,0-0.5,0-0.7,0.1
		c-0.1,0.1-0.2,0.2-0.3,0.3h-0.1l0.3-1.1h2.1L20.6,29.5z"/>
	<g>
		<path class="st0" d="M29.8,27.8c-0.1,0-0.1,0.1-0.1,0.1c0,0.1-0.1,0.2-0.1,0.3c0,0.1,0,0.2,0,0.4c0,0.2,0,0.3,0.1,0.4
			c0,0.1,0.1,0.2,0.2,0.2c0.1,0,0.2,0.1,0.2,0.1c0.1,0,0.2,0,0.3-0.1c0.1-0.1,0.1-0.2,0.1-0.4C30.5,28.5,30.3,28.2,29.8,27.8z"/>
		<path class="st0" d="M30.1,26c-0.1,0-0.2,0-0.3,0.1c-0.1,0.1-0.1,0.2-0.1,0.3c0,0.1,0,0.3,0.1,0.4c0.1,0.1,0.3,0.3,0.5,0.5
			c0.1-0.1,0.1-0.2,0.1-0.3c0-0.1,0-0.2,0-0.4c0-0.2,0-0.4-0.1-0.5C30.3,26,30.2,26,30.1,26z"/>
		<path class="st0" d="M26.1,23.6v7.9H34v-7.9H26.1z M30.9,29.2c-0.2,0.2-0.5,0.3-0.9,0.3c-0.4,0-0.6-0.1-0.8-0.3
			c-0.2-0.2-0.3-0.4-0.3-0.6c0-0.2,0.1-0.4,0.2-0.5c0.1-0.1,0.3-0.3,0.6-0.4c-0.3-0.2-0.5-0.4-0.5-0.5c-0.1-0.1-0.1-0.3-0.1-0.5
			c0-0.2,0.1-0.4,0.3-0.6c0.2-0.2,0.5-0.3,0.8-0.3c0.3,0,0.6,0.1,0.8,0.2c0.2,0.2,0.3,0.4,0.3,0.6c0,0.2,0,0.3-0.1,0.4
			c-0.1,0.1-0.3,0.2-0.5,0.3c0.3,0.2,0.4,0.4,0.5,0.5c0.1,0.2,0.1,0.3,0.1,0.5C31.2,28.8,31.1,29,30.9,29.2z"/>
	</g>
	<g>
		<path class="st0" d="M35.3,23.6v7.9h7.9v-7.9H35.3z M40.3,28.2c-0.2,0.3-0.4,0.6-0.8,0.8c-0.4,0.2-0.8,0.3-1.3,0.3v-0.1
			c0.3-0.1,0.5-0.2,0.7-0.3c0.2-0.1,0.4-0.3,0.5-0.5c0.1-0.2,0.2-0.4,0.2-0.7c-0.1,0.1-0.2,0.1-0.3,0.1c-0.1,0-0.2,0-0.2,0
			c-0.3,0-0.5-0.1-0.7-0.3c-0.2-0.2-0.3-0.5-0.3-0.8c0-0.2,0-0.5,0.1-0.6c0.1-0.2,0.2-0.3,0.4-0.5c0.2-0.1,0.4-0.2,0.6-0.2
			c0.2,0,0.4,0.1,0.6,0.2c0.2,0.1,0.3,0.3,0.4,0.5c0.1,0.2,0.2,0.5,0.2,0.8C40.5,27.5,40.5,27.9,40.3,28.2z"/>
		<path class="st0" d="M39.4,25.9c0,0-0.1-0.1-0.2-0.1c-0.1,0-0.2,0-0.2,0.1C39,26.1,39,26.3,39,26.6c0,0.5,0.1,0.8,0.2,1
			c0.1,0.1,0.2,0.2,0.3,0.2c0.1,0,0.2,0,0.3-0.1c0-0.2,0-0.4,0-0.5c0-0.3,0-0.6-0.1-0.9C39.6,26.1,39.5,26,39.4,25.9z"/>
	</g>
	<g>
		<path class="st0" d="M44.5,23.6v7.9h7.9v-7.9H44.5z M48,29.5h-1.9v-0.1h0.1c0.2,0,0.3,0,0.3-0.1c0.1,0,0.1-0.1,0.1-0.1
			c0-0.1,0-0.2,0-0.4v-1.9c0-0.2,0-0.3,0-0.3c0,0,0-0.1-0.1-0.1c0,0-0.1,0-0.1,0c-0.1,0-0.2,0-0.3,0.1l0-0.1l1.3-0.6h0.1v2.9
			c0,0.2,0,0.4,0,0.4c0,0.1,0.1,0.1,0.1,0.1C47.7,29.4,47.8,29.4,48,29.5L48,29.5L48,29.5z M50.8,28.7c-0.1,0.2-0.1,0.3-0.2,0.5
			c-0.1,0.1-0.2,0.2-0.3,0.3c-0.1,0.1-0.3,0.1-0.4,0.1c-0.2,0-0.3,0-0.5-0.1c-0.1-0.1-0.3-0.2-0.4-0.4c-0.1-0.1-0.1-0.3-0.2-0.5
			c-0.1-0.3-0.1-0.5-0.1-0.8c0-0.4,0.1-0.7,0.2-1.1c0.1-0.3,0.2-0.5,0.4-0.6c0.2-0.1,0.4-0.2,0.6-0.2c0.2,0,0.4,0.1,0.6,0.2
			c0.2,0.1,0.3,0.3,0.4,0.6c0.1,0.3,0.2,0.7,0.2,1.1C51,28.1,50.9,28.4,50.8,28.7z"/>
		<path class="st0" d="M50,26.1c0-0.1-0.1-0.1-0.2-0.1c-0.1,0-0.1,0-0.2,0.1c-0.1,0.1-0.1,0.2-0.1,0.3c0,0.2,0,0.7,0,1.6
			c0,0.5,0,0.8,0.1,1c0,0.1,0.1,0.2,0.1,0.3c0,0,0.1,0.1,0.2,0.1c0.1,0,0.2,0,0.2-0.1c0.1-0.1,0.1-0.3,0.1-0.5l0-1.1
			c0-0.6,0-1,0-1.1C50.1,26.4,50.1,26.2,50,26.1z"/>
	</g>
	<path class="st0" d="M7.6,32.9v7.9h7.9v-7.9H7.6z M11.4,38.7H9.5v-0.1h0.1c0.2,0,0.3,0,0.3-0.1c0.1,0,0.1-0.1,0.1-0.1
		c0-0.1,0-0.2,0-0.4v-1.9c0-0.2,0-0.3,0-0.3c0,0,0-0.1-0.1-0.1c0,0-0.1,0-0.1,0c-0.1,0-0.2,0-0.3,0.1l0-0.1l1.3-0.6h0.1V38
		c0,0.2,0,0.4,0,0.4c0,0.1,0.1,0.1,0.1,0.1C11,38.6,11.1,38.6,11.4,38.7L11.4,38.7L11.4,38.7z M13.8,38.7h-1.9v-0.1H12
		c0.2,0,0.3,0,0.3-0.1c0.1,0,0.1-0.1,0.1-0.1c0-0.1,0-0.2,0-0.4v-1.9c0-0.2,0-0.3,0-0.3c0,0,0-0.1-0.1-0.1c0,0-0.1,0-0.1,0
		c-0.1,0-0.2,0-0.3,0.1l0-0.1l1.3-0.6h0.1V38c0,0.2,0,0.4,0,0.4c0,0.1,0.1,0.1,0.1,0.1C13.4,38.6,13.5,38.6,13.8,38.7L13.8,38.7
		L13.8,38.7z"/>
	<path class="st0" d="M16.9,32.9v7.9h7.9v-7.9H16.9z M20.3,38.9h-1.9v-0.1h0.1c0.2,0,0.3,0,0.3-0.1c0.1,0,0.1-0.1,0.1-0.1
		c0-0.1,0-0.2,0-0.4v-1.9c0-0.2,0-0.3,0-0.3c0,0,0-0.1-0.1-0.1c0,0-0.1,0-0.1,0c-0.1,0-0.2,0-0.3,0.1l0-0.1l1.3-0.6h0.1v2.9
		c0,0.2,0,0.4,0,0.4c0,0.1,0.1,0.1,0.1,0.1C20,38.8,20.1,38.8,20.3,38.9L20.3,38.9L20.3,38.9z M23,38.9h-2.1v-0.1
		c0.6-0.8,1-1.3,1.2-1.6c0.1-0.3,0.2-0.5,0.2-0.8c0-0.2-0.1-0.3-0.2-0.5c-0.1-0.1-0.3-0.2-0.4-0.2c-0.3,0-0.5,0.1-0.6,0.4l-0.1,0
		c0.1-0.3,0.2-0.6,0.4-0.7c0.2-0.2,0.4-0.2,0.7-0.2c0.2,0,0.3,0,0.5,0.1c0.1,0.1,0.3,0.2,0.4,0.3C23,35.8,23,36,23,36.1
		c0,0.2-0.1,0.5-0.2,0.7c-0.2,0.3-0.6,0.8-1.2,1.4h0.8c0.2,0,0.3,0,0.4,0c0.1,0,0.1,0,0.1-0.1c0,0,0.1-0.1,0.1-0.2h0.1L23,38.9z"/>
	<path class="st0" d="M26.1,32.9v7.9H34v-7.9H26.1z M29.7,38.9h-1.9v-0.1h0.1c0.2,0,0.3,0,0.3-0.1c0.1,0,0.1-0.1,0.1-0.1
		c0-0.1,0-0.2,0-0.4v-1.9c0-0.2,0-0.3,0-0.3c0,0,0-0.1-0.1-0.1c0,0-0.1,0-0.1,0c-0.1,0-0.2,0-0.3,0.1l0-0.1l1.3-0.6h0.1v2.9
		c0,0.2,0,0.4,0,0.4c0,0.1,0.1,0.1,0.1,0.1C29.4,38.8,29.5,38.8,29.7,38.9L29.7,38.9L29.7,38.9z M32.1,38.6
		c-0.3,0.3-0.6,0.4-1.1,0.4c-0.3,0-0.5,0-0.7-0.1c-0.1-0.1-0.2-0.2-0.2-0.3c0-0.1,0-0.1,0.1-0.2c0.1-0.1,0.1-0.1,0.2-0.1
		c0.1,0,0.1,0,0.2,0c0,0,0.1,0.1,0.3,0.2c0.2,0.1,0.3,0.2,0.5,0.2c0.1,0,0.2-0.1,0.3-0.2c0.1-0.1,0.1-0.2,0.1-0.4
		c0-0.2-0.1-0.5-0.3-0.7c-0.2-0.2-0.4-0.3-0.7-0.4V37c0.2-0.1,0.3-0.1,0.4-0.2c0.1-0.1,0.1-0.1,0.2-0.2c0.1-0.1,0.1-0.2,0.1-0.3
		c0-0.1-0.1-0.3-0.2-0.4c-0.1-0.1-0.2-0.2-0.4-0.2c-0.2,0-0.5,0.1-0.6,0.4l-0.1,0c0.1-0.3,0.3-0.5,0.5-0.7c0.2-0.1,0.4-0.2,0.7-0.2
		c0.2,0,0.5,0.1,0.6,0.2c0.2,0.2,0.2,0.3,0.2,0.5c0,0.1,0,0.3-0.1,0.4c-0.1,0.1-0.2,0.2-0.4,0.3c0.2,0.1,0.4,0.2,0.5,0.4
		c0.1,0.1,0.2,0.3,0.2,0.6C32.5,38,32.4,38.3,32.1,38.6z"/>
	<g>
		<polygon class="st0" points="40.6,37.4 40.6,36 39.6,37.4 		"/>
		<path class="st0" d="M35.3,32.9v7.9h7.9v-7.9H35.3z M38.8,38.7h-1.9v-0.1H37c0.2,0,0.3,0,0.3-0.1c0.1,0,0.1-0.1,0.1-0.1
			c0-0.1,0-0.2,0-0.4v-1.9c0-0.2,0-0.3,0-0.3c0,0,0-0.1-0.1-0.1c0,0-0.1,0-0.1,0c-0.1,0-0.2,0-0.3,0.1l0-0.1l1.3-0.6h0.1V38
			c0,0.2,0,0.4,0,0.4c0,0.1,0.1,0.1,0.1,0.1C38.5,38.6,38.6,38.6,38.8,38.7L38.8,38.7L38.8,38.7z M41.7,37.9h-0.3v0.8h-0.7v-0.8
			h-1.3c0,0,0-0.5,0-0.5l1.7-2.3h0.3v2.3h0.3V37.9z"/>
	</g>
	<path class="st0" d="M44.5,32.9v7.9h7.9v-7.9H44.5z M48,38.8h-1.9v-0.1h0.1c0.2,0,0.3,0,0.3-0.1c0.1,0,0.1-0.1,0.1-0.1
		c0-0.1,0-0.2,0-0.4v-1.9c0-0.2,0-0.3,0-0.3c0,0,0-0.1-0.1-0.1c0,0-0.1,0-0.1,0c-0.1,0-0.2,0-0.3,0.1l0-0.1l1.3-0.6c0,0,0.1,0,0.1,0
		v2.9c0,0.2,0,0.4,0,0.4c0,0.1,0.1,0.1,0.1,0.1C47.7,38.7,47.8,38.7,48,38.8L48,38.8L48,38.8z M50.5,36.7c0.3,0.2,0.4,0.5,0.4,0.9
		c0,0.2-0.1,0.4-0.2,0.6c-0.1,0.2-0.3,0.4-0.5,0.5c-0.2,0.1-0.5,0.2-0.7,0.2c-0.3,0-0.5-0.1-0.7-0.2c-0.1-0.1-0.2-0.2-0.2-0.3
		c0-0.1,0-0.1,0.1-0.2c0.1-0.1,0.1-0.1,0.2-0.1c0.1,0,0.1,0,0.2,0c0.1,0,0.2,0.1,0.4,0.2c0.1,0.1,0.2,0.1,0.3,0.2c0.1,0,0.1,0,0.2,0
		c0.1,0,0.3-0.1,0.4-0.2c0.1-0.1,0.2-0.2,0.2-0.4c0-0.3-0.2-0.6-0.5-0.8c-0.3-0.2-0.7-0.3-1.2-0.3c0,0-0.1,0-0.2,0l0.6-1.8h1.7
		l-0.3,0.7h-1.4l-0.1,0.4C49.7,36.3,50.2,36.4,50.5,36.7z"/>
	<g>
		<path class="st0" d="M12.4,46.6c0,0.2,0,0.5,0.1,0.7c0,0.2,0.1,0.4,0.2,0.5c0.1,0.1,0.1,0.1,0.2,0.1c0.1,0,0.2,0,0.2-0.1
			c0.1-0.1,0.1-0.3,0.1-0.6c0-0.5-0.1-0.8-0.2-1C12.9,46,12.8,46,12.7,46c-0.1,0-0.2,0-0.3,0.1C12.4,46.3,12.4,46.5,12.4,46.6z"/>
		<path class="st0" d="M7.6,42.2v7.9h7.9v-7.9H7.6z M11,48H9.1v-0.1h0.1c0.2,0,0.3,0,0.3-0.1c0.1,0,0.1-0.1,0.1-0.1
			c0-0.1,0-0.2,0-0.4v-1.9c0-0.2,0-0.3,0-0.3c0,0,0-0.1-0.1-0.1c0,0-0.1,0-0.1,0c-0.1,0-0.2,0-0.3,0.1l0-0.1l1.3-0.6h0.1v2.9
			c0,0.2,0,0.4,0,0.4c0,0.1,0.1,0.1,0.1,0.1C10.7,47.9,10.8,47.9,11,48L11,48L11,48z M13.9,44.4c-0.3,0.1-0.6,0.2-0.8,0.3
			c-0.2,0.1-0.3,0.3-0.5,0.5c-0.1,0.2-0.2,0.4-0.3,0.7c0.1-0.1,0.1-0.1,0.2-0.1c0.1,0,0.2-0.1,0.3-0.1c0.3,0,0.5,0.1,0.7,0.3
			c0.2,0.2,0.3,0.5,0.3,0.8c0,0.2,0,0.5-0.1,0.6c-0.1,0.2-0.2,0.3-0.4,0.5C13.2,48,13,48,12.8,48c-0.2,0-0.4-0.1-0.6-0.2
			c-0.2-0.1-0.3-0.3-0.4-0.5c-0.1-0.2-0.2-0.5-0.2-0.8c0-0.4,0.1-0.8,0.3-1.1c0.2-0.3,0.5-0.6,0.8-0.8
			C13.1,44.4,13.5,44.3,13.9,44.4L13.9,44.4z"/>
	</g>
	<path class="st0" d="M16.9,42.2v7.9h7.9v-7.9H16.9z M20.3,48h-1.9V48h0.1c0.2,0,0.3,0,0.3-0.1c0.1,0,0.1-0.1,0.1-0.1
		c0-0.1,0-0.2,0-0.4v-1.9c0-0.2,0-0.3,0-0.3c0,0,0-0.1-0.1-0.1c0,0-0.1,0-0.1,0c-0.1,0-0.2,0-0.3,0.1l0-0.1l1.3-0.6h0.1v2.9
		c0,0.2,0,0.4,0,0.4c0,0.1,0.1,0.1,0.1,0.1C20,47.9,20.1,48,20.3,48L20.3,48L20.3,48z M22.1,48.1h-0.4l0,0v0h0l1-3h-0.7
		c-0.3,0-0.5,0-0.7,0.1c-0.1,0.1-0.2,0.2-0.3,0.3h-0.1l0.3-1.1h2.1L22.1,48.1z"/>
	<g>
		<path class="st0" d="M31.1,46.5c-0.1,0-0.1,0.1-0.1,0.1c0,0.1-0.1,0.2-0.1,0.3c0,0.1,0,0.2,0,0.4c0,0.2,0,0.3,0.1,0.4
			c0,0.1,0.1,0.2,0.2,0.2c0.1,0,0.2,0.1,0.2,0.1c0.1,0,0.2,0,0.3-0.1c0.1-0.1,0.1-0.2,0.1-0.4C31.8,47.1,31.6,46.8,31.1,46.5z"/>
		<path class="st0" d="M31.4,44.6c-0.1,0-0.2,0-0.3,0.1C31,44.8,31,44.9,31,45.1c0,0.1,0,0.3,0.1,0.4c0.1,0.1,0.3,0.3,0.5,0.5
			c0.1-0.1,0.1-0.2,0.1-0.3c0-0.1,0-0.2,0-0.4c0-0.2,0-0.4-0.1-0.5C31.6,44.7,31.5,44.6,31.4,44.6z"/>
		<path class="st0" d="M26.1,42.2v7.9H34v-7.9H26.1z M29.6,48.1h-1.9V48h0.1c0.2,0,0.3,0,0.3-0.1c0.1,0,0.1-0.1,0.1-0.1
			c0-0.1,0-0.2,0-0.4v-1.9c0-0.2,0-0.3,0-0.3c0,0,0-0.1-0.1-0.1c0,0-0.1,0-0.1,0c-0.1,0-0.2,0-0.3,0.1l0-0.1l1.3-0.6h0.1v2.9
			c0,0.2,0,0.4,0,0.4c0,0.1,0.1,0.1,0.1,0.1C29.3,48,29.4,48,29.6,48.1L29.6,48.1L29.6,48.1z M32.2,47.9c-0.2,0.2-0.5,0.3-0.9,0.3
			c-0.4,0-0.6-0.1-0.8-0.3c-0.2-0.2-0.3-0.4-0.3-0.6c0-0.2,0.1-0.4,0.2-0.5c0.1-0.1,0.3-0.3,0.6-0.4c-0.3-0.2-0.5-0.4-0.5-0.5
			c-0.1-0.1-0.1-0.3-0.1-0.5c0-0.2,0.1-0.4,0.3-0.6c0.2-0.2,0.5-0.3,0.8-0.3c0.3,0,0.6,0.1,0.8,0.2c0.2,0.2,0.3,0.4,0.3,0.6
			c0,0.2,0,0.3-0.1,0.4c-0.1,0.1-0.3,0.2-0.5,0.3c0.3,0.2,0.4,0.4,0.5,0.5c0.1,0.2,0.1,0.3,0.1,0.5C32.5,47.4,32.4,47.7,32.2,47.9z"
			/>
	</g>
	<g>
		<path class="st0" d="M35.3,42.2v7.9h7.9v-7.9H35.3z M38.8,48.1h-1.9V48H37c0.2,0,0.3,0,0.3-0.1c0.1,0,0.1-0.1,0.1-0.1
			c0-0.1,0-0.2,0-0.4v-1.9c0-0.2,0-0.3,0-0.3c0,0,0-0.1-0.1-0.1c0,0-0.1,0-0.1,0c-0.1,0-0.2,0-0.3,0.1l0-0.1l1.3-0.6h0.1v2.9
			c0,0.2,0,0.4,0,0.4c0,0.1,0.1,0.1,0.1,0.1C38.5,48,38.6,48,38.8,48.1L38.8,48.1L38.8,48.1z M41.5,47c-0.2,0.3-0.4,0.6-0.8,0.8
			c-0.4,0.2-0.8,0.3-1.3,0.3v-0.1c0.3-0.1,0.5-0.2,0.7-0.3c0.2-0.1,0.4-0.3,0.5-0.5c0.1-0.2,0.2-0.4,0.2-0.7
			c-0.1,0.1-0.2,0.1-0.3,0.1c-0.1,0-0.2,0-0.2,0c-0.3,0-0.5-0.1-0.7-0.3c-0.2-0.2-0.3-0.5-0.3-0.8c0-0.2,0-0.5,0.1-0.6
			c0.1-0.2,0.2-0.3,0.4-0.5c0.2-0.1,0.4-0.2,0.6-0.2c0.2,0,0.4,0.1,0.6,0.2c0.2,0.1,0.3,0.3,0.4,0.5c0.1,0.2,0.2,0.5,0.2,0.8
			C41.7,46.3,41.7,46.6,41.5,47z"/>
		<path class="st0" d="M40.7,44.7c0,0-0.1-0.1-0.2-0.1c-0.1,0-0.2,0-0.2,0.1c-0.1,0.1-0.1,0.3-0.1,0.6c0,0.5,0.1,0.8,0.2,1
			c0.1,0.1,0.2,0.2,0.3,0.2c0.1,0,0.2,0,0.3-0.1c0-0.2,0-0.4,0-0.5c0-0.3,0-0.6-0.1-0.9C40.8,44.9,40.7,44.7,40.7,44.7z"/>
	</g>
	<g>
		<path class="st0" d="M50.1,44.7c0-0.1-0.1-0.1-0.2-0.1c-0.1,0-0.1,0-0.2,0.1c-0.1,0.1-0.1,0.2-0.1,0.3c0,0.2,0,0.7,0,1.6
			c0,0.5,0,0.8,0.1,1c0,0.1,0.1,0.2,0.1,0.3c0,0,0.1,0.1,0.2,0.1c0.1,0,0.2,0,0.2-0.1c0.1-0.1,0.1-0.3,0.1-0.5l0-1.1
			c0-0.6,0-1,0-1.1C50.2,45,50.1,44.8,50.1,44.7z"/>
		<path class="st0" d="M44.5,42.2v7.9h7.9v-7.9H44.5z M48.1,48.1h-2.1V48c0.6-0.8,1-1.3,1.2-1.6c0.1-0.3,0.2-0.5,0.2-0.8
			c0-0.2-0.1-0.3-0.2-0.5c-0.1-0.1-0.3-0.2-0.4-0.2c-0.3,0-0.5,0.1-0.6,0.4l-0.1,0c0.1-0.3,0.2-0.6,0.4-0.7c0.2-0.2,0.4-0.2,0.7-0.2
			c0.2,0,0.3,0,0.5,0.1c0.1,0.1,0.3,0.2,0.4,0.3c0.1,0.1,0.1,0.3,0.1,0.4c0,0.2-0.1,0.5-0.2,0.7c-0.2,0.3-0.6,0.8-1.2,1.4h0.8
			c0.2,0,0.3,0,0.4,0c0.1,0,0.1,0,0.1-0.1c0,0,0.1-0.1,0.1-0.2h0.1L48.1,48.1z M50.9,47.3c-0.1,0.2-0.1,0.3-0.2,0.5
			c-0.1,0.1-0.2,0.2-0.3,0.3c-0.1,0.1-0.3,0.1-0.4,0.1c-0.2,0-0.3,0-0.5-0.1c-0.1-0.1-0.3-0.2-0.4-0.4c-0.1-0.1-0.1-0.3-0.2-0.5
			c-0.1-0.3-0.1-0.5-0.1-0.8c0-0.4,0.1-0.7,0.2-1.1c0.1-0.3,0.2-0.5,0.4-0.6c0.2-0.1,0.4-0.2,0.6-0.2c0.2,0,0.4,0.1,0.6,0.2
			c0.2,0.1,0.3,0.3,0.4,0.6c0.1,0.3,0.2,0.7,0.2,1.1C51,46.7,51,47,50.9,47.3z"/>
	</g>
</g>
</svg>
