<?xml version="1.0" encoding="utf-8"?>
<!-- Generator: Adobe Illustrator 22.0.1, SVG Export Plug-In . SVG Version: 6.00 Build 0)  -->
<svg version="1.1" id="Layer_1" xmlns="http://www.w3.org/2000/svg" xmlns:xlink="http://www.w3.org/1999/xlink" x="0px" y="0px"
	 viewBox="0 0 90.8 24" style="enable-background:new 0 0 90.8 24;" xml:space="preserve">
<g>
	<path d="M11.6,8.2c-0.6-1.6-1.3-2.3-2.4-2.3c-1.2,0-1.8,0.7-1.8,1.9c0,2.6,7.4,2.8,7.4,8.2c0,3-2,4.9-5.5,4.9
		c-2.7,0-4.8-1.5-5.7-4.9l3.3-0.7c0.4,2.1,1.6,2.8,2.6,2.8c1.2,0,2-0.8,2-2.1c0-3.3-7.4-3.3-7.4-8.2c0-3,1.8-4.8,5.2-4.8
		c3,0,4.8,1.8,5.3,4.2L11.6,8.2z"/>
	<path d="M17.1,15.5v-2.6H23v2.6h34.1H17.1z"/>
	<path d="M25.8,20.7V3.4h4.8c4.1,0,6.1,1.9,6.1,5.2c0,3.3-2,5.2-6.1,5.2H29v7h0L25.8,20.7z M29,11h1.8c1.6,0,2.4-0.8,2.4-2.4
		s-0.8-2.4-2.4-2.4H29V11z"/>
	<path d="M36.8,20.7l4.3-17.3h4.2l4.2,17.3h-3.2l-0.8-3.6H41L40,20.7h36.8H36.8z M41.5,14.1h3.3l-1.6-7l0,0L41.5,14.1z"/>
	<path d="M60,3.4v2.9h-3.9v14.4h-3.3V6.3h-3.9V3.4h51.1L60,3.4z"/>
	<path d="M62.2,20.7V3.4h3.3v6.9h4.7V3.4h3.3v17.3h-3.3v-7.5h-4.7v7.5h36.7H62.2z"/>
	<path d="M84.1,8.2c-0.6-1.6-1.3-2.3-2.4-2.3c-1.2,0-1.8,0.7-1.8,1.9c0,2.6,7.4,2.8,7.4,8.2c0,3-2,4.9-5.5,4.9
		c-2.7,0-4.8-1.5-5.7-4.9l3.3-0.7c0.4,2.1,1.6,2.8,2.6,2.8c1.2,0,2-0.8,2-2.1c0-3.3-7.4-3.3-7.4-8.2c0-3,1.8-4.8,5.2-4.8
		c3,0,4.8,1.8,5.3,4.2L84.1,8.2z"/>
</g>
</svg>
