<?xml version="1.0" encoding="utf-8"?>
<svg version="1.1" id="Layer_1" xmlns="http://www.w3.org/2000/svg" xmlns:xlink="http://www.w3.org/1999/xlink" x="0px" y="0px"
	 viewBox="0 55 200 82" xml:space="preserve">
<g style="color:#414141;">
	<path d="M12.8,64.5c-0.6-1.6-1.3-2.3-2.4-2.3c-1.2,0-1.8,0.7-1.8,1.9c0,2.6,7.4,2.8,7.4,8.2c0,3-2,4.9-5.5,4.9
		c-2.7,0-4.8-1.5-5.7-4.9l3.3-0.7c0.4,2.1,1.6,2.8,2.6,2.8c1.2,0,2-0.8,2-2.1c0-3.3-7.4-3.3-7.4-8.2c0-3,1.8-4.8,5.2-4.8
		c3,0,4.8,1.8,5.3,4.2L12.8,64.5z"/>
	<path d="M18.4,71.8v-2.6h5.9v2.6H58.4z"/>
	<path d="M27,77V59.7h4.8c4.1,0,6.1,1.9,6.1,5.2s-2,5.2-6.1,5.2h-1.5v7H67z M30.3,67.3h1.8c1.6,0,2.4-0.8,2.4-2.4s-0.8-2.4-2.4-2.4
		h-1.8V67.3z"/>
	<path d="M38.1,77l4.3-17.3h4.2L50.8,77h-3.2l-0.8-3.6h-4.6L41.3,77H78.1z M42.8,70.4h3.3l-1.6-7h0L42.8,70.4z"/>
	<path d="M61.3,59.7v2.9h-3.9V77h-3.3V62.6h-3.9v-2.9H101.3z"/>
	<path d="M63.5,77V59.7h3.3v6.9h4.7v-6.9h3.3V77h-3.3v-7.5h-4.7V77H103.5z"/>
	<path d="M85.3,64.5c-0.6-1.6-1.3-2.3-2.4-2.3c-1.2,0-1.8,0.7-1.8,1.9c0,2.6,7.4,2.8,7.4,8.2c0,3-2,4.9-5.5,4.9
		c-2.7,0-4.8-1.5-5.7-4.9l3.3-0.7c0.4,2.1,1.6,2.8,2.6,2.8c1.2,0,2-0.8,2-2.1c0-3.3-7.4-3.3-7.4-8.2c0-3,1.8-4.8,5.2-4.8
		c3,0,4.8,1.8,5.3,4.2L85.3,64.5z"/>
</g>
</svg>
