<?xml version="1.0" encoding="utf-8"?>
<!-- Generator: Adobe Illustrator 24.0.0, SVG Export Plug-In . SVG Version: 6.00 Build 0)  -->
<svg version="1.1" id="Layer_1" xmlns="http://www.w3.org/2000/svg" xmlns:xlink="http://www.w3.org/1999/xlink" x="0px" y="0px"
	 viewBox="0 0 84 81" xml:space="preserve">
<g>
	<path d="M10.14,68.35c-1.92,0.23-2.86,0.86-3.12,2.13c-0.27,1.29,0.37,2.17,1.66,2.45c2.88,0.61,4.81-7.48,10.78-6.23
		c3.28,0.69,4.97,3.39,4.16,7.22c-0.62,2.96-2.72,4.92-6.68,5.1l-0.01-3.75c2.39,0.06,3.48-1.09,3.71-2.17
		c0.27-1.27-0.37-2.42-1.8-2.73c-3.59-0.76-5.36,7.37-10.7,6.24c-3.28-0.69-4.92-3.08-4.13-6.86c0.69-3.25,3.03-4.83,5.86-4.89
		L10.14,68.35z" fill="#888" />
	<path d="M19.98,63.77l-2.76-1.1l2.46-6.17l2.76,1.1L19.98,63.77z"  fill="#888"/>
	<path d="M28.76,57.6L12.17,47.38l2.82-4.57c2.41-3.91,5.42-4.68,8.55-2.76c3.13,1.93,3.79,4.97,1.38,8.87l-0.86,1.4l6.67,4.11
		L28.76,57.6z M21.43,48.71l1.05-1.7c0.96-1.56,0.66-2.83-0.9-3.79c-1.56-0.96-2.83-0.66-3.79,0.9l-1.05,1.7L21.43,48.71z"  fill="#888"/>
	<path d="M34.77,47.64l-10.9-16.87l3.27-3.48l17.42,9.93l-2.44,2.6l-3.64-2.12l-3.53,3.76l2.27,3.58L34.77,47.64z M33.02,38.7
		l2.53-2.7l-6.98-4.08l-0.04,0.04L33.02,38.7z"  fill="#888"/>
	<path d="M42.13,15.11l1.94,2.66l-3.51,2.57l9.56,13.08l-3.01,2.2l-9.56-13.08l-3.51,2.57l-1.94-2.66L42.13,15.11z"  fill="#888" />
	<path d="M54.94,30.08l-7.87-17.83l3.41-1.5l3.14,7.11l4.82-2.12L55.3,8.62l3.41-1.5l7.87,17.83l-3.41,1.5l-3.4-7.71l-4.82,2.12
		l3.4,7.71L54.94,30.08z"  fill="#888"/>
	<path d="M74.55,8.85c-0.96-1.69-1.9-2.3-3.17-2.06c-1.3,0.25-1.86,1.18-1.61,2.48c0.55,2.89,8.76,1.54,9.91,7.53
		c0.63,3.29-1.21,5.89-5.05,6.63c-2.97,0.57-5.59-0.61-7.29-4.18l3.46-1.46c0.87,2.23,2.35,2.79,3.44,2.58
		c1.27-0.24,2.09-1.28,1.82-2.71c-0.69-3.61-8.87-2.09-9.89-7.45c-0.63-3.29,0.93-5.73,4.73-6.46c3.26-0.62,5.62,0.93,6.78,3.51
		L74.55,8.85z"  fill="#888"/>
</g>
</svg>
