<?xml version="1.0" encoding="utf-8"?>
<!-- Generator: Adobe Illustrator 24.1.0, SVG Export Plug-In . SVG Version: 6.00 Build 0)  -->
<svg version="1.1" xmlns="http://www.w3.org/2000/svg" xmlns:xlink="http://www.w3.org/1999/xlink" x="0px" y="0px"
	 viewBox="0 0 106.6 111.4" style="enable-background:new 0 0 106.6 111.4;" xml:space="preserve">
<style type="text/css">
	.st0{display:none;}
	.st1{display:inline;}
	.st2{fill:#666666;}
	.st3{fill:#888888;}
</style>
<g id="Layer_1" class="st0">
	<g id="Layer_2_1_">
		
			<image style="display:inline;overflow:visible;enable-background:new    ;" width="1920" height="1200" xlink:href="../../../../../Desktop/Screenshot 2020-05-19 at 22.09.25.png"  transform="matrix(1.4064 0 0 1.4064 -134.8924 -179.4444)">
		</image>
	</g>
	<g id="Layer_3" class="st1">
		<g>
			<path class="st2" d="M17.1,88.3c-2.1-0.7-3.2,0.2-3.6,1.1c-0.5,1.3,0,2.4,1.5,3c4.1,1.7,9.5-6,16-3.3c4,1.6,5.1,5.2,3.5,9
				s-5.5,4.8-9.2,3.5l1-4.2c2.5,0.8,4.1,0.3,4.6-1c0.6-1.4,0.2-2.7-1.2-3.3c-4.8-1.9-9.4,6-16.3,3.2c-3.8-1.6-5.1-4.8-3.4-8.8
				c1.4-3.4,4.6-4.4,8.2-3.4L17.1,88.3z"/>
			<path class="st2" d="M30.8,85.8l-2.9-1.5l4.1-7.8l2.9,1.5L30.8,85.8z"/>
			<path class="st2" d="M43.5,78.9L21.8,64.6l3.5-5.3c3-4.6,6.2-5.6,10.8-2.5s5,6.4,2,11L37,69.4l8.9,5.9L43.5,78.9z M34,67.3l1-1.4
				c1.6-2.4,1.3-3.7-1.2-5.4c-2.6-1.7-3.8-1.4-5.4,1l-1,1.4L34,67.3z"/>
			<path class="st2" d="M54.9,62.6l-2.8,3.3L35.3,45.5l3.6-4.2l23,13.1l-2.8,3.3l-4.9-3.1L51,58.3L54.9,62.6z M48.5,55.3l2.3-2.8
				l-9.7-5.8v0.1L48.5,55.3z"/>
			<path class="st2" d="M48.8,36.3l-3.1,3L43,36.6l9.3-9.2l2.7,2.8l-3.1,3l15.5,15.7L64.2,52L48.8,36.3z"/>
			<path class="st2" d="M72,44.6L55.9,24.2l3.5-2.8l6.6,8.3l3.7-2.9l-6.6-8.3l3.5-2.8l16.1,20.4l-3.5,2.8l-7.1-9l-3.7,2.9l7.1,9
				L72,44.6z"/>
			<path class="st2" d="M82.4,13.1c-1.3-1.8-2.7-1.7-3.5-1.2c-1.2,0.8-1.4,2-0.6,3.3C80.6,19,89.5,16,93.2,22c2.2,3.6,1,7.2-2.5,9.4
				s-7.3,0.6-9.5-2.6l3.3-2.7c1.5,2.1,3.1,2.7,4.3,1.9c1.3-0.8,1.8-2.1,1-3.4c-2.7-4.4-11.1-0.8-15-7.1c-2.2-3.5-1.2-6.8,2.5-9.1
				c3.1-1.9,6.3-0.8,8.6,2.1L82.4,13.1z"/>
		</g>
	</g>
	<g id="Layer_1_1_">
		<g class="st1">
			<path class="st3" d="M26.1,68.3c-1.9,0.2-2.9,0.9-3.1,2.1c-0.3,1.3,0.4,2.2,1.7,2.4c2.9,0.6,4.8-7.5,10.8-6.2
				c3.3,0.7,5,3.4,4.2,7.2c-0.6,3-2.7,4.9-6.7,5.1v-3.8c2.4,0.1,3.5-1.1,3.7-2.2c0.3-1.3-0.4-2.4-1.8-2.7c-3.6-0.8-5.4,7.4-10.7,6.2
				c-3.3-0.7-4.9-3.1-4.1-6.9c0.7-3.2,3-4.8,5.9-4.9L26.1,68.3z"/>
			<path class="st3" d="M35.9,63.8l-2.8-1.1l2.5-6.2l2.8,1.1L35.9,63.8z"/>
			<path class="st3" d="M44.7,57.6L28.1,47.4l2.8-4.6c2.4-3.9,5.4-4.7,8.5-2.8c3.1,1.9,3.8,5,1.4,8.9L40,50.3l6.7,4.1L44.7,57.6z
				 M37.4,48.7l1-1.7c1-1.6,0.7-2.8-0.9-3.8c-1.6-1-2.8-0.7-3.8,0.9l-1,1.7L37.4,48.7z"/>
			<path class="st3" d="M50.7,47.6L39.8,30.8l3.3-3.5l17.4,9.9l-2.4,2.6l-3.6-2.1L51,41.5l2.3,3.6L50.7,47.6z M49,38.7l2.5-2.7
				l-7-4.1l0,0L49,38.7z"/>
			<path class="st3" d="M58.1,15.1l1.9,2.7l-3.5,2.6l9.6,13.1l-3,2.2l-9.6-13.1L50,25.1l-1.9-2.7L58.1,15.1z"/>
			<path class="st3" d="M70.9,30.1L63,12.2l3.4-1.5l3.1,7.1l4.8-2.1l-3.1-7.1l3.4-1.5L82.5,25l-3.4,1.5l-3.4-7.7l-4.8,2.1l3.4,7.7
				L70.9,30.1z"/>
			<path class="st3" d="M90.5,8.9c-1-1.7-1.9-2.3-3.2-2.1C86,7,85.5,8,85.7,9.3c0.6,2.9,8.8,1.5,9.9,7.5c0.6,3.3-1.2,5.9-5.1,6.6
				c-3,0.6-5.6-0.6-7.3-4.2l3.5-1.5c0.9,2.2,2.3,2.8,3.4,2.6c1.3-0.2,2.1-1.3,1.8-2.7C91.2,14,83,15.5,82,10.2
				c-0.6-3.3,0.9-5.7,4.7-6.5c3.3-0.6,5.6,0.9,6.8,3.5L90.5,8.9z"/>
		</g>
	</g>
</g>
<g id="Layer_2">
	<g>
		<path class="st2" d="M13.9,53.2c-0.6-1.8-1.4-2.6-2.7-2.6c-1.3,0-2.1,0.8-2.1,2.1c0,2.9,8.3,3.2,8.3,9.3c0,3.3-2.3,5.6-6.2,5.6
			c-3,0-5.4-1.6-6.4-5.5l3.7-0.8c0.4,2.3,1.8,3.2,2.9,3.2c1.3,0,2.3-0.9,2.3-2.3c0-3.7-8.3-3.7-8.3-9.2c0-3.3,2-5.5,5.9-5.5
			c3.3,0,5.3,2,6,4.7L13.9,53.2z"/>
		<path class="st2" d="M20.2,61.4v-3h6.6v3H20.2z"/>
		<path class="st2" d="M29.9,67.3V47.8h5.4c4.6,0,6.8,2.2,6.8,5.8c0,3.7-2.2,5.8-6.8,5.8h-1.6v7.8H29.9z M33.6,56.4h2
			c1.8,0,2.8-0.9,2.8-2.8s-0.9-2.8-2.8-2.8h-2V56.4z"/>
		<path class="st2" d="M42.4,67.3l4.8-19.5H52l4.7,19.5h-3.6l-0.9-4.1H47L46,67.3H42.4z M47.7,59.9h3.7L49.6,52h-0.1L47.7,59.9z"/>
		<path class="st2" d="M68.5,47.8v3.3h-4.3v16.2h-3.7V51.1h-4.3v-3.3H68.5z"/>
		<path class="st2" d="M70.9,67.3V47.8h3.7v7.8h5.3v-7.8h3.7v19.5h-3.7v-8.4h-5.3v8.4H70.9z"/>
		<path class="st2" d="M95.4,53.2c-0.6-1.8-1.4-2.6-2.7-2.6c-1.3,0-2.1,0.8-2.1,2.1c0,2.9,8.3,3.2,8.3,9.3c0,3.3-2.3,5.6-6.2,5.6
			c-3,0-5.4-1.6-6.4-5.5l3.7-0.8c0.4,2.3,1.8,3.2,2.9,3.2c1.3,0,2.3-0.9,2.3-2.3c0-3.7-8.3-3.7-8.3-9.2c0-3.3,2-5.5,5.9-5.5
			c3.3,0,5.3,2,6,4.7L95.4,53.2z"/>
	</g>
</g>
</svg>
