<?xml version="1.0" encoding="utf-8"?>
<!-- Generator: Adobe Illustrator 22.0.1, SVG Export Plug-In . SVG Version: 6.00 Build 0)  -->
<svg version="1.1" id="Layer_1" xmlns="http://www.w3.org/2000/svg" xmlns:xlink="http://www.w3.org/1999/xlink" x="0px" y="0px"
	 viewBox="0 0 60.1 60.1" style="enable-background:new 0 0 60.1 60.1;" xml:space="preserve">
<style type="text/css">
	.st0{fill:#FFFFFF;}
</style>
<g>
	<g>
		<g>
			<path class="st0" d="M15.3,30.1c0-0.3,0-0.5,0.1-0.8H7.1v1.5h8.2C15.3,30.6,15.3,30.4,15.3,30.1z"/>
		</g>
		<g>
			<path class="st0" d="M31.5,30.9c-0.1-0.2-0.1-0.5-0.1-0.8s0-0.5,0.1-0.8h-9.2c0.1,0.2,0.1,0.5,0.1,0.8s0,0.5-0.1,0.8H31.5z"/>
			<path class="st0" d="M38.4,29.4c0.1,0.2,0.1,0.5,0.1,0.8c0,0.3,0,0.5-0.1,0.8h13v-1.5H38.4z"/>
		</g>
		<g>
			<polygon class="st0" points="47.7,35.5 46.6,34.4 51,30 46.6,25.7 47.7,24.6 53.1,30 			"/>
		</g>
	</g>
</g>
<g>
	<path class="st0" d="M18.8,33.6c-1.9,0-3.5-1.6-3.5-3.5s1.6-3.5,3.5-3.5s3.5,1.6,3.5,3.5S20.8,33.6,18.8,33.6z M18.8,28
		c-1.1,0-2,0.9-2,2c0,1.1,0.9,2,2,2s2-0.9,2-2C20.8,28.9,19.9,28,18.8,28z"/>
</g>
<g>
	<path class="st0" d="M34.9,33.6c-1.9,0-3.5-1.6-3.5-3.5s1.6-3.5,3.5-3.5c1.9,0,3.5,1.6,3.5,3.5C38.5,32,36.9,33.6,34.9,33.6z
		 M34.9,28c-1.1,0-2,0.9-2,2c0,1.1,0.9,2,2,2c1.1,0,2-0.9,2-2C37,28.9,36.1,28,34.9,28z"/>
</g>
</svg>
