<?xml version="1.0" encoding="utf-8"?>
<svg version="1.1" id="Layer_1" xmlns="http://www.w3.org/2000/svg" xmlns:xlink="http://www.w3.org/1999/xlink" x="0px" y="0px"
	 viewBox="0 0 60 60" xml:space="preserve">
<style type="text/css">
	.st0{fill:#FFFFFF;}
</style>
<g>
	<g>
		<rect x="9.8" y="11.7" class="st0" width="11.7" height="11.1"/>
		<rect x="39.4" y="11.7" class="st0" width="10.9" height="13.4"/>
		<rect x="39.4" y="26.3" class="st0" width="10.9" height="2.6"/>
		<rect x="39.4" y="38.9" class="st0" width="7" height="9.5"/>
		<rect x="39.4" y="30" class="st0" width="2.7" height="7.7"/>
		<rect x="43.3" y="30" class="st0" width="2.9" height="7.7"/>
		<rect x="47.6" y="30" class="st0" width="2.5" height="7.7"/>
		<rect x="47.6" y="44.3" class="st0" width="2.5" height="4"/>
		<rect x="47.6" y="39.1" class="st0" width="2.5" height="4"/>
		<rect x="22.8" y="11.7" class="st0" width="15.3" height="17.1"/>
		<rect x="22.8" y="30" class="st0" width="8.6" height="10.6"/>
		<rect x="32.5" y="30" class="st0" width="5.6" height="10.6"/>
		<rect x="32.5" y="45.7" class="st0" width="5.6" height="2.6"/>
		<rect x="32.5" y="41.9" class="st0" width="5.6" height="2.8"/>
		<rect x="22.8" y="41.7" class="st0" width="4.1" height="6.5"/>
		<rect x="28" y="41.7" class="st0" width="3.4" height="6.5"/>
		<rect x="9.8" y="37.1" class="st0" width="5.2" height="11.1"/>
		<rect x="9.8" y="24.2" class="st0" width="11.7" height="5.1"/>
		<rect x="9.8" y="30.7" class="st0" width="5.2" height="5.1"/>
		<rect x="16.5" y="30.7" class="st0" width="5.2" height="5.1"/>
		<rect x="16.5" y="45.2" class="st0" width="5.2" height="3"/>
		<rect x="16.5" y="37.2" class="st0" width="5.2" height="6.7"/>
	</g>
</g>
</svg>

