<?xml version="1.0" encoding="utf-8"?>
<!-- Generator: Adobe Illustrator 22.0.1, SVG Export Plug-In . SVG Version: 6.00 Build 0)  -->
<svg version="1.1" id="Layer_1" xmlns="http://www.w3.org/2000/svg" xmlns:xlink="http://www.w3.org/1999/xlink" x="0px" y="0px"
	 viewBox="0 0 60 60" xml:space="preserve">
<style type="text/css">
	.st0{fill:#FFFFFF;}
</style>
<path class="st0" d="M38.1,29.4c0.1,0.5,0.2,1.1,0.2,1.6c0,0.6-0.1,1.1-0.2,1.7H47v-3.3H38.1z"/>
<path class="st0" d="M38.1,32.7c-0.2,1.1-0.7,2.1-1.3,3l10.4,4.4l1.3-3L38.1,32.7z"/>
<path class="st0" d="M36.8,35.8c-0.6,0.9-1.4,1.7-2.3,2.3l12,12.1l2.3-2.3L36.8,35.8z"/>
<path class="st0" d="M34.4,38.2c-0.9,0.6-2,1-3.1,1.2l5.6,14.1l3.1-1.2L34.4,38.2z"/>
<path class="st0" d="M29.8,39.6c-0.6,0-1.1-0.1-1.6-0.2v16.2h3.3V39.4C30.9,39.5,30.3,39.6,29.8,39.6z"/>
<path class="st0" d="M25.1,38.2L22.7,44l3.1,1.2l2.4-5.9C27,39.2,26,38.8,25.1,38.2z"/>
<path class="st0" d="M22.7,35.8L10.1,48.4l2.3,2.3L25,38.1C24.1,37.5,23.3,36.7,22.7,35.8z"/>
<path class="st0" d="M21.4,32.6l-10.7,4.3l1.2,3.1l10.7-4.3C22,34.8,21.6,33.7,21.4,32.6z"/>
<path class="st0" d="M21.2,31c0-0.6,0.1-1.1,0.2-1.6h-18v3.3h18C21.3,32.2,21.2,31.6,21.2,31z"/>
<path class="st0" d="M22.6,26.3l-9.4-3.9L12,25.5l9.4,3.9C21.6,28.3,22,27.3,22.6,26.3z"/>
<path class="st0" d="M25,24L13.9,12.9l-2.3,2.3l11.1,11.1C23.3,25.4,24.1,24.6,25,24z"/>
<path class="st0" d="M28.1,22.7L22.9,9.7L19.8,11l5.3,13C26,23.3,27,22.9,28.1,22.7z"/>
<path class="st0" d="M29.8,22.5c0.6,0,1.1,0.1,1.6,0.2V3.4h-3.3v19.2C28.6,22.6,29.2,22.5,29.8,22.5z"/>
<path class="st0" d="M34.4,23.9l5.5-13.4l-3.1-1.2l-5.5,13.4C32.5,22.9,33.5,23.3,34.4,23.9z"/>
<path class="st0" d="M36.8,26.3L49,14.1l-2.3-2.3L34.5,24C35.4,24.6,36.2,25.4,36.8,26.3z"/>
<path class="st0" d="M38.1,29.4l14.2-5.8L51,20.5l-14.2,5.8C37.5,27.2,37.9,28.3,38.1,29.4z"/>
</svg>
