<?xml version="1.0" encoding="utf-8"?>
<!-- Generator: Adobe Illustrator 22.0.1, SVG Export Plug-In . SVG Version: 6.00 Build 0)  -->
<svg version="1.1" id="Layer_1" xmlns="http://www.w3.org/2000/svg" xmlns:xlink="http://www.w3.org/1999/xlink" x="0px" y="0px"
	 viewBox="0 0 60 60" xml:space="preserve">
<style type="text/css">
	.st5{opacity:0.65;fill:none;stroke:#FFFFFF;stroke-width:2;stroke-linecap:round;stroke-miterlimit:10;}
	.st6{opacity:0.95;fill:none;stroke:#FFFFFF;stroke-width:2;stroke-linecap:round;stroke-miterlimit:10;}
	.st7{opacity:0.8;fill:none;stroke:#FFFFFF;stroke-width:2;stroke-linecap:round;stroke-miterlimit:10;}
</style>
<g>
	<path class="st5" d="M32.9,28.7c0,0,6.4-8.6,14.4-3.4c0,0,4.5,2.1,5.8,10"/>
	<path class="st6" d="M33.2,29.1c0,0,10.1-3.5,13.8,5.3c0,0,2.5,4.3-0.9,11.5"/>
	<path class="st7" d="M32,28.8c0,0-7.3,7.8-14.6,1.7c0,0-4.2-2.6-4.6-10.6"/>
	<path class="st7" d="M32.5,28.4c0,0,0.4-10.7,9.9-10.9c0,0,4.9-0.8,10.4,5"/>
	<path class="st5" d="M32.2,29.2c0,0,5.1,9.4-3,14.4c0,0-3.8,3.2-11.5,1"/>
	<path class="st6" d="M31.9,29.1c0,0-1.6,10.6-11.1,9.7c0,0-4.9,0.2-9.8-6.1"/>
	<path class="st7" d="M32.8,29.3c0,0,10,3.9,7,13c0,0-0.9,4.9-8.1,8.2"/>
	<path class="st5" d="M32.6,28.8c0,0-10.7-0.4-10.9-10c0,0-0.8-4.9,5-10.4"/>
	<path class="st6" d="M32.5,28.5c0,0-7.3-7.8-0.7-14.7c0,0,2.9-4,10.9-3.9"/>
</g>
</svg>
